<svg width="800" height="400" viewBox="0 0 800 400" xmlns="http://www.w3.org/2000/svg"><mask id="satori_om-id"><rect x="0" y="0" width="800" height="400" fill="#fff"/></mask><rect x="0" y="0" width="800" height="400" fill="oklch(1 0 0)"/><clipPath id="satori_bct-id-0"><path d="M320.9 207L308.8 207L308.8 163.4L320.9 163.4L320.9 207ZM314.9 157.7L314.9 157.7Q312.2 157.7 310.3 155.9Q308.4 154.1 308.4 151.6L308.4 151.6Q308.4 149.1 310.3 147.3Q312.2 145.5 314.9 145.5L314.9 145.5Q317.6 145.5 319.5 147.3Q321.4 149.1 321.4 151.6L321.4 151.6Q321.4 154.1 319.5 155.9Q317.6 157.7 314.9 157.7ZM326.4 148.8L340.4 148.8L352.1 168.6L352.5 168.6L364.3 148.8L378.2 148.8L360.5 177.9L378.6 207L364.5 207L352.5 187.1L352.1 187.1L340.2 207L326.1 207L344.3 177.9L326.4 148.8ZM412.3 198.6L403.3 186.8L413.7 186.8L419.0 193.5L424.1 199.6L433.9 211.8L422.4 211.8L415.7 203.5L412.3 198.6ZM434.8 177.9L434.8 177.9Q434.8 187.4 431.2 194.1Q427.6 200.8 421.4 204.3Q415.2 207.8 407.5 207.8L407.5 207.8Q399.8 207.8 393.6 204.3Q387.4 200.8 383.9 194.1Q380.3 187.4 380.3 177.9L380.3 177.9Q380.3 168.4 383.9 161.7Q387.4 155.0 393.6 151.5Q399.8 148.0 407.5 148.0L407.5 148.0Q415.2 148.0 421.4 151.5Q427.6 155.0 431.2 161.7Q434.8 168.4 434.8 177.9ZM422.3 177.9L422.3 177.9Q422.3 171.7 420.5 167.5Q418.6 163.3 415.3 161.1Q412.0 158.9 407.5 158.9L407.5 158.9Q403.1 158.9 399.7 161.1Q396.4 163.3 394.6 167.5Q392.8 171.7 392.8 177.9L392.8 177.9Q392.8 184.1 394.6 188.3Q396.4 192.5 399.7 194.7Q403.1 196.9 407.5 196.9L407.5 196.9Q412.0 196.9 415.3 194.7Q418.6 192.5 420.5 188.3Q422.3 184.1 422.3 177.9ZM477.9 185.6L477.9 148.8L490.2 148.8L490.2 186.6Q490.2 193.0 487.1 197.7Q484.1 202.5 478.7 205.2Q473.3 207.8 466.0 207.8L466.0 207.8Q458.8 207.8 453.4 205.2Q447.9 202.5 444.9 197.7Q441.9 193.0 441.9 186.6L441.9 186.6L441.9 148.8L454.2 148.8L454.2 185.6Q454.2 188.9 455.7 191.5Q457.1 194.0 459.8 195.5Q462.5 197 466.0 197L466.0 197Q469.6 197 472.3 195.5Q474.9 194.0 476.4 191.5Q477.9 188.9 477.9 185.6L477.9 185.6Z "/></clipPath><defs><pattern id="satori_pattern_id-0_0" x="0" y="0" width="1" height="1" patternUnits="objectBoundingBox"><linearGradient id="satori_biid-0_0" x1="0" y1="0" x2="1" y2="0" spreadMethod="pad"><stop offset="0%" stop-color="oklch(0.79 0.1 275)"/><stop offset="100%" stop-color="oklch(0.51 0.23 277)"/></linearGradient><rect x="0" y="0" width="192" height="97" fill="url(#satori_biid-0_0)"/></pattern></defs><mask id="satori_om-id-0"><rect x="304" y="129" width="192" height="97" fill="#fff"/></mask><rect x="304" y="129" width="192" height="97" fill="url(#satori_pattern_id-0_0)" clip-path="url(#satori_bct-id-0)"/><clipPath id="satori_bct-id-1"><path d="M350.8 306L343.2 306L343.2 269.6L367.2 269.6L367.2 276.0L350.8 276.0L350.8 284.6L365.6 284.6L365.6 291.0L350.8 291.0L350.8 306ZM370.3 269.6L377.8 269.6L377.8 306L370.3 306L370.3 269.6ZM394.2 306.5L394.2 306.5Q390.0 306.5 387.0 304.8Q384.0 303.0 382.4 299.8Q380.8 296.7 380.8 292.5L380.8 292.5Q380.8 288.2 382.4 285.1Q384.0 281.9 387.0 280.1Q390.0 278.4 394.2 278.4L394.2 278.4Q398.3 278.4 401.3 280.1Q404.3 281.9 406.0 285.1Q407.6 288.2 407.6 292.5L407.6 292.5Q407.6 296.7 406.0 299.8Q404.3 303.0 401.3 304.8Q398.3 306.5 394.2 306.5ZM394.2 300.7L394.2 300.7Q396.1 300.7 397.4 299.6Q398.6 298.5 399.3 296.7Q399.9 294.8 399.9 292.4L399.9 292.4Q399.9 290.0 399.3 288.2Q398.6 286.3 397.4 285.2Q396.1 284.1 394.2 284.1L394.2 284.1Q392.3 284.1 391.0 285.2Q389.7 286.3 389.1 288.2Q388.5 290.0 388.5 292.4L388.5 292.4Q388.5 294.8 389.1 296.7Q389.7 298.5 391.0 299.6Q392.3 300.7 394.2 300.7ZM423.2 306L415.2 306L407.8 278.7L415.5 278.7L419.7 297.1L420.0 297.1L424.4 278.7L431.9 278.7L436.3 296.9L436.6 296.9L440.7 278.7L448.4 278.7L441.0 306L433.0 306L428.3 288.8L427.9 288.8L423.2 306ZM451.1 306.5L451.1 306.5Q449.3 306.5 448.1 305.2Q446.8 304.0 446.8 302.2L446.8 302.2Q446.8 300.5 448.1 299.2Q449.3 298.0 451.1 298.0L451.1 298.0Q452.8 298.0 454.1 299.2Q455.4 300.5 455.4 302.2L455.4 302.2Q455.4 303.4 454.8 304.3Q454.2 305.3 453.2 305.9Q452.3 306.5 451.1 306.5Z "/></clipPath><defs><pattern id="satori_pattern_id-1_0" x="0" y="0" width="1" height="1" patternUnits="objectBoundingBox"><linearGradient id="satori_biid-1_0" x1="0" y1="0" x2="1" y2="0" spreadMethod="pad"><stop offset="0%" stop-color="oklch(0.68 0.16 277)"/><stop offset="100%" stop-color="oklch(0.46 0.21 277)"/></linearGradient><rect x="0" y="0" width="121" height="61" fill="url(#satori_biid-1_0)"/></pattern></defs><mask id="satori_om-id-1"><rect x="340" y="258" width="121" height="61" fill="#fff"/></mask><rect x="340" y="258" width="121" height="61" fill="url(#satori_pattern_id-1_0)" clip-path="url(#satori_bct-id-1)"/></svg>