<svg width="400" height="400" viewBox="0 0 400 400" fill="none" xmlns="http://www.w3.org/2000/svg">
<rect width="400" height="400" fill="white"/>
<path d="M55.1364 232V162.182H68.7273V232H55.1364ZM62 151.409C59.6364 151.409 57.6061 150.621 55.9091 149.045C54.2424 147.439 53.4091 145.53 53.4091 143.318C53.4091 141.076 54.2424 139.167 55.9091 137.591C57.6061 135.985 59.6364 135.182 62 135.182C64.3636 135.182 66.3788 135.985 68.0455 137.591C69.7424 139.167 70.5909 141.076 70.5909 143.318C70.5909 145.53 69.7424 147.439 68.0455 149.045C66.3788 150.621 64.3636 151.409 62 151.409ZM97.875 138.909L120.148 175.318H120.875L143.148 138.909H159.42L130.42 185.455L159.602 232H143.239L120.875 196.091H120.148L97.7841 232H81.4205L111.102 185.455L81.6023 138.909H97.875ZM205.08 201.818H218.898L228.625 214.5L233.216 220.136L248.716 240.364H234.352L223.989 226.864L220.443 221.955L205.08 201.818ZM251.716 185.455C251.716 195.394 249.898 203.939 246.261 211.091C242.625 218.212 237.64 223.697 231.307 227.545C225.004 231.364 217.837 233.273 209.807 233.273C201.746 233.273 194.549 231.364 188.216 227.545C181.913 223.697 176.943 218.197 173.307 211.045C169.67 203.894 167.852 195.364 167.852 185.455C167.852 175.515 169.67 166.985 173.307 159.864C176.943 152.712 181.913 147.227 188.216 143.409C194.549 139.561 201.746 137.636 209.807 137.636C217.837 137.636 225.004 139.561 231.307 143.409C237.64 147.227 242.625 152.712 246.261 159.864C249.898 166.985 251.716 175.515 251.716 185.455ZM237.807 185.455C237.807 177.879 236.58 171.5 234.125 166.318C231.701 161.106 228.367 157.167 224.125 154.5C219.913 151.803 215.14 150.455 209.807 150.455C204.443 150.455 199.655 151.803 195.443 154.5C191.231 157.167 187.898 161.106 185.443 166.318C183.019 171.5 181.807 177.879 181.807 185.455C181.807 193.03 183.019 199.424 185.443 204.636C187.898 209.818 191.231 213.758 195.443 216.455C199.655 219.121 204.443 220.455 209.807 220.455C215.14 220.455 219.913 219.121 224.125 216.455C228.367 213.758 231.701 209.818 234.125 204.636C236.58 199.424 237.807 193.03 237.807 185.455ZM329.091 138.909H343.182V200.136C343.182 206.652 341.652 212.424 338.591 217.455C335.53 222.455 331.227 226.394 325.682 229.273C320.136 232.121 313.636 233.545 306.182 233.545C298.758 233.545 292.273 232.121 286.727 229.273C281.182 226.394 276.879 222.455 273.818 217.455C270.758 212.424 269.227 206.652 269.227 200.136V138.909H283.273V199C283.273 203.212 284.197 206.955 286.045 210.227C287.924 213.5 290.576 216.076 294 217.955C297.424 219.803 301.485 220.727 306.182 220.727C310.909 220.727 314.985 219.803 318.409 217.955C321.864 216.076 324.5 213.5 326.318 210.227C328.167 206.955 329.091 203.212 329.091 199V138.909Z" fill="#0A0A0A"/>
<path d="M115.278 288V276.364H119.426C120.331 276.364 121.081 276.528 121.676 276.858C122.271 277.187 122.716 277.638 123.011 278.21C123.307 278.778 123.455 279.419 123.455 280.131C123.455 280.847 123.305 281.491 123.006 282.062C122.71 282.631 122.263 283.081 121.665 283.415C121.07 283.744 120.322 283.909 119.42 283.909H116.568V282.42H119.261C119.833 282.42 120.297 282.322 120.653 282.125C121.009 281.924 121.271 281.652 121.438 281.307C121.604 280.962 121.688 280.57 121.688 280.131C121.688 279.691 121.604 279.301 121.438 278.96C121.271 278.619 121.008 278.352 120.648 278.159C120.292 277.966 119.822 277.869 119.239 277.869H117.034V288H115.278ZM128.943 288.176C128.125 288.176 127.411 287.989 126.801 287.614C126.191 287.239 125.718 286.714 125.381 286.04C125.044 285.366 124.875 284.578 124.875 283.676C124.875 282.771 125.044 281.979 125.381 281.301C125.718 280.623 126.191 280.097 126.801 279.722C127.411 279.347 128.125 279.159 128.943 279.159C129.761 279.159 130.475 279.347 131.085 279.722C131.695 280.097 132.169 280.623 132.506 281.301C132.843 281.979 133.011 282.771 133.011 283.676C133.011 284.578 132.843 285.366 132.506 286.04C132.169 286.714 131.695 287.239 131.085 287.614C130.475 287.989 129.761 288.176 128.943 288.176ZM128.949 286.75C129.479 286.75 129.919 286.61 130.267 286.33C130.616 286.049 130.873 285.676 131.04 285.21C131.21 284.744 131.295 284.231 131.295 283.67C131.295 283.114 131.21 282.602 131.04 282.136C130.873 281.667 130.616 281.29 130.267 281.006C129.919 280.722 129.479 280.58 128.949 280.58C128.415 280.58 127.972 280.722 127.619 281.006C127.271 281.29 127.011 281.667 126.841 282.136C126.674 282.602 126.591 283.114 126.591 283.67C126.591 284.231 126.674 284.744 126.841 285.21C127.011 285.676 127.271 286.049 127.619 286.33C127.972 286.61 128.415 286.75 128.949 286.75ZM134.908 288V279.273H136.538V280.693H136.646C136.828 280.212 137.125 279.837 137.538 279.568C137.951 279.295 138.446 279.159 139.021 279.159C139.605 279.159 140.093 279.295 140.487 279.568C140.885 279.841 141.179 280.216 141.368 280.693H141.459C141.667 280.227 141.999 279.856 142.453 279.58C142.908 279.299 143.449 279.159 144.078 279.159C144.87 279.159 145.516 279.407 146.016 279.903C146.519 280.4 146.771 281.148 146.771 282.148V288H145.072V282.307C145.072 281.716 144.911 281.288 144.589 281.023C144.268 280.758 143.883 280.625 143.436 280.625C142.883 280.625 142.453 280.795 142.146 281.136C141.839 281.473 141.686 281.907 141.686 282.438V288H139.993V282.199C139.993 281.725 139.845 281.345 139.55 281.057C139.254 280.769 138.87 280.625 138.396 280.625C138.074 280.625 137.777 280.71 137.504 280.881C137.235 281.047 137.018 281.28 136.851 281.58C136.688 281.879 136.607 282.225 136.607 282.619V288H134.908ZM152.724 288.176C151.906 288.176 151.192 287.989 150.582 287.614C149.973 287.239 149.499 286.714 149.162 286.04C148.825 285.366 148.656 284.578 148.656 283.676C148.656 282.771 148.825 281.979 149.162 281.301C149.499 280.623 149.973 280.097 150.582 279.722C151.192 279.347 151.906 279.159 152.724 279.159C153.543 279.159 154.257 279.347 154.866 279.722C155.476 280.097 155.95 280.623 156.287 281.301C156.624 281.979 156.793 282.771 156.793 283.676C156.793 284.578 156.624 285.366 156.287 286.04C155.95 286.714 155.476 287.239 154.866 287.614C154.257 287.989 153.543 288.176 152.724 288.176ZM152.73 286.75C153.26 286.75 153.7 286.61 154.048 286.33C154.397 286.049 154.654 285.676 154.821 285.21C154.991 284.744 155.077 284.231 155.077 283.67C155.077 283.114 154.991 282.602 154.821 282.136C154.654 281.667 154.397 281.29 154.048 281.006C153.7 280.722 153.26 280.58 152.73 280.58C152.196 280.58 151.753 280.722 151.401 281.006C151.052 281.29 150.793 281.667 150.622 282.136C150.455 282.602 150.372 283.114 150.372 283.67C150.372 284.231 150.455 284.744 150.622 285.21C150.793 285.676 151.052 286.049 151.401 286.33C151.753 286.61 152.196 286.75 152.73 286.75ZM161.956 288.17C161.251 288.17 160.623 287.991 160.07 287.631C159.52 287.267 159.089 286.75 158.774 286.08C158.464 285.405 158.308 284.597 158.308 283.653C158.308 282.71 158.465 281.903 158.78 281.233C159.098 280.562 159.534 280.049 160.087 279.693C160.64 279.337 161.267 279.159 161.967 279.159C162.509 279.159 162.945 279.25 163.274 279.432C163.607 279.61 163.865 279.818 164.047 280.057C164.232 280.295 164.376 280.506 164.479 280.688H164.581V276.364H166.28V288H164.621V286.642H164.479C164.376 286.828 164.229 287.04 164.036 287.278C163.846 287.517 163.585 287.725 163.251 287.903C162.918 288.081 162.486 288.17 161.956 288.17ZM162.331 286.722C162.82 286.722 163.232 286.593 163.57 286.335C163.911 286.074 164.168 285.712 164.342 285.25C164.52 284.788 164.609 284.25 164.609 283.636C164.609 283.03 164.522 282.5 164.348 282.045C164.174 281.591 163.918 281.237 163.581 280.983C163.244 280.729 162.827 280.602 162.331 280.602C161.82 280.602 161.393 280.735 161.053 281C160.712 281.265 160.454 281.627 160.28 282.085C160.109 282.544 160.024 283.061 160.024 283.636C160.024 284.22 160.111 284.744 160.286 285.21C160.46 285.676 160.717 286.045 161.058 286.318C161.403 286.587 161.827 286.722 162.331 286.722ZM172.381 288.176C171.563 288.176 170.848 287.989 170.239 287.614C169.629 287.239 169.155 286.714 168.818 286.04C168.481 285.366 168.312 284.578 168.312 283.676C168.312 282.771 168.481 281.979 168.818 281.301C169.155 280.623 169.629 280.097 170.239 279.722C170.848 279.347 171.563 279.159 172.381 279.159C173.199 279.159 173.913 279.347 174.523 279.722C175.133 280.097 175.606 280.623 175.943 281.301C176.28 281.979 176.449 282.771 176.449 283.676C176.449 284.578 176.28 285.366 175.943 286.04C175.606 286.714 175.133 287.239 174.523 287.614C173.913 287.989 173.199 288.176 172.381 288.176ZM172.386 286.75C172.917 286.75 173.356 286.61 173.705 286.33C174.053 286.049 174.311 285.676 174.477 285.21C174.648 284.744 174.733 284.231 174.733 283.67C174.733 283.114 174.648 282.602 174.477 282.136C174.311 281.667 174.053 281.29 173.705 281.006C173.356 280.722 172.917 280.58 172.386 280.58C171.852 280.58 171.409 280.722 171.057 281.006C170.708 281.29 170.449 281.667 170.278 282.136C170.112 282.602 170.028 283.114 170.028 283.67C170.028 284.231 170.112 284.744 170.278 285.21C170.449 285.676 170.708 286.049 171.057 286.33C171.409 286.61 171.852 286.75 172.386 286.75ZM178.345 288V279.273H179.987V280.659H180.078C180.237 280.189 180.518 279.82 180.919 279.551C181.324 279.278 181.783 279.142 182.294 279.142C182.4 279.142 182.525 279.146 182.669 279.153C182.817 279.161 182.932 279.17 183.016 279.182V280.807C182.947 280.788 182.826 280.767 182.652 280.744C182.478 280.718 182.304 280.705 182.129 280.705C181.728 280.705 181.37 280.79 181.055 280.96C180.745 281.127 180.499 281.36 180.317 281.659C180.135 281.955 180.044 282.292 180.044 282.67V288H178.345ZM187.849 288.176C187.031 288.176 186.317 287.989 185.707 287.614C185.098 287.239 184.624 286.714 184.287 286.04C183.95 285.366 183.781 284.578 183.781 283.676C183.781 282.771 183.95 281.979 184.287 281.301C184.624 280.623 185.098 280.097 185.707 279.722C186.317 279.347 187.031 279.159 187.849 279.159C188.668 279.159 189.382 279.347 189.991 279.722C190.601 280.097 191.075 280.623 191.412 281.301C191.749 281.979 191.918 282.771 191.918 283.676C191.918 284.578 191.749 285.366 191.412 286.04C191.075 286.714 190.601 287.239 189.991 287.614C189.382 287.989 188.668 288.176 187.849 288.176ZM187.855 286.75C188.385 286.75 188.825 286.61 189.173 286.33C189.522 286.049 189.779 285.676 189.946 285.21C190.116 284.744 190.202 284.231 190.202 283.67C190.202 283.114 190.116 282.602 189.946 282.136C189.779 281.667 189.522 281.29 189.173 281.006C188.825 280.722 188.385 280.58 187.855 280.58C187.321 280.58 186.878 280.722 186.526 281.006C186.177 281.29 185.918 281.667 185.747 282.136C185.58 282.602 185.497 283.114 185.497 283.67C185.497 284.231 185.58 284.744 185.747 285.21C185.918 285.676 186.177 286.049 186.526 286.33C186.878 286.61 187.321 286.75 187.855 286.75ZM200.354 281.403L198.814 281.676C198.75 281.479 198.647 281.292 198.507 281.114C198.371 280.936 198.185 280.79 197.95 280.676C197.715 280.562 197.422 280.506 197.07 280.506C196.589 280.506 196.187 280.614 195.865 280.83C195.543 281.042 195.382 281.316 195.382 281.653C195.382 281.945 195.49 282.18 195.706 282.358C195.922 282.536 196.27 282.682 196.751 282.795L198.138 283.114C198.941 283.299 199.539 283.585 199.933 283.972C200.327 284.358 200.524 284.86 200.524 285.477C200.524 286 200.373 286.466 200.07 286.875C199.77 287.28 199.352 287.598 198.814 287.83C198.28 288.061 197.661 288.176 196.956 288.176C195.979 288.176 195.181 287.968 194.564 287.551C193.946 287.131 193.568 286.534 193.428 285.761L195.07 285.511C195.172 285.939 195.382 286.263 195.7 286.483C196.018 286.699 196.433 286.807 196.945 286.807C197.501 286.807 197.946 286.691 198.28 286.46C198.613 286.225 198.78 285.939 198.78 285.602C198.78 285.33 198.678 285.1 198.473 284.915C198.272 284.729 197.964 284.589 197.547 284.494L196.07 284.17C195.255 283.985 194.653 283.689 194.263 283.284C193.876 282.879 193.683 282.366 193.683 281.744C193.683 281.229 193.827 280.778 194.115 280.392C194.403 280.006 194.801 279.705 195.308 279.489C195.816 279.269 196.397 279.159 197.053 279.159C197.996 279.159 198.738 279.364 199.28 279.773C199.821 280.178 200.179 280.722 200.354 281.403ZM204.602 286.409L204.517 287.028C204.46 287.483 204.364 287.956 204.227 288.449C204.095 288.945 203.956 289.405 203.812 289.83C203.672 290.254 203.557 290.591 203.466 290.841H202.261C202.311 290.606 202.379 290.288 202.466 289.886C202.553 289.489 202.638 289.044 202.722 288.551C202.805 288.059 202.867 287.557 202.909 287.045L202.966 286.409H204.602ZM211.185 288V276.364H215.332C216.238 276.364 216.988 276.528 217.582 276.858C218.177 277.187 218.622 277.638 218.918 278.21C219.213 278.778 219.361 279.419 219.361 280.131C219.361 280.847 219.211 281.491 218.912 282.062C218.616 282.631 218.17 283.081 217.571 283.415C216.976 283.744 216.228 283.909 215.327 283.909H212.474V282.42H215.168C215.74 282.42 216.204 282.322 216.56 282.125C216.916 281.924 217.177 281.652 217.344 281.307C217.51 280.962 217.594 280.57 217.594 280.131C217.594 279.691 217.51 279.301 217.344 278.96C217.177 278.619 216.914 278.352 216.554 278.159C216.198 277.966 215.728 277.869 215.145 277.869H212.94V288H211.185ZM224.935 288.176C224.075 288.176 223.334 287.992 222.713 287.625C222.096 287.254 221.618 286.733 221.281 286.062C220.948 285.388 220.781 284.598 220.781 283.693C220.781 282.799 220.948 282.011 221.281 281.33C221.618 280.648 222.088 280.116 222.69 279.733C223.296 279.35 224.005 279.159 224.815 279.159C225.308 279.159 225.785 279.241 226.247 279.403C226.709 279.566 227.124 279.822 227.491 280.17C227.859 280.519 228.149 280.972 228.361 281.528C228.573 282.081 228.679 282.754 228.679 283.545V284.148H221.741V282.875H227.014C227.014 282.428 226.923 282.032 226.741 281.688C226.56 281.339 226.304 281.064 225.974 280.864C225.649 280.663 225.266 280.562 224.827 280.562C224.349 280.562 223.933 280.68 223.577 280.915C223.224 281.146 222.952 281.449 222.759 281.824C222.569 282.195 222.474 282.598 222.474 283.034V284.028C222.474 284.612 222.577 285.108 222.781 285.517C222.99 285.926 223.279 286.239 223.651 286.455C224.022 286.667 224.455 286.773 224.952 286.773C225.274 286.773 225.567 286.727 225.832 286.636C226.098 286.542 226.327 286.402 226.52 286.216C226.713 286.03 226.861 285.801 226.963 285.528L228.571 285.818C228.442 286.292 228.211 286.706 227.878 287.062C227.548 287.415 227.134 287.689 226.634 287.886C226.137 288.08 225.571 288.176 224.935 288.176ZM230.564 288V279.273H232.206V280.659H232.297C232.456 280.189 232.736 279.82 233.138 279.551C233.543 279.278 234.001 279.142 234.513 279.142C234.619 279.142 234.744 279.146 234.888 279.153C235.036 279.161 235.151 279.17 235.234 279.182V280.807C235.166 280.788 235.045 280.767 234.871 280.744C234.696 280.718 234.522 280.705 234.348 280.705C233.946 280.705 233.589 280.79 233.274 280.96C232.964 281.127 232.717 281.36 232.536 281.659C232.354 281.955 232.263 282.292 232.263 282.67V288H230.564ZM241.374 279.273V280.636H236.442V279.273H241.374ZM237.794 288V278.261C237.794 277.716 237.913 277.263 238.152 276.903C238.391 276.54 238.707 276.269 239.101 276.091C239.495 275.909 239.923 275.818 240.385 275.818C240.726 275.818 241.018 275.847 241.26 275.903C241.502 275.956 241.682 276.006 241.8 276.051L241.402 277.426C241.322 277.403 241.22 277.377 241.095 277.347C240.97 277.312 240.819 277.295 240.641 277.295C240.228 277.295 239.932 277.398 239.754 277.602C239.58 277.807 239.493 278.102 239.493 278.489V288H237.794ZM246.544 288.176C245.684 288.176 244.944 287.992 244.322 287.625C243.705 287.254 243.228 286.733 242.891 286.062C242.557 285.388 242.391 284.598 242.391 283.693C242.391 282.799 242.557 282.011 242.891 281.33C243.228 280.648 243.697 280.116 244.3 279.733C244.906 279.35 245.614 279.159 246.425 279.159C246.917 279.159 247.394 279.241 247.857 279.403C248.319 279.566 248.733 279.822 249.101 280.17C249.468 280.519 249.758 280.972 249.97 281.528C250.182 282.081 250.288 282.754 250.288 283.545V284.148H243.351V282.875H248.624C248.624 282.428 248.533 282.032 248.351 281.688C248.169 281.339 247.913 281.064 247.584 280.864C247.258 280.663 246.875 280.562 246.436 280.562C245.959 280.562 245.542 280.68 245.186 280.915C244.834 281.146 244.561 281.449 244.368 281.824C244.179 282.195 244.084 282.598 244.084 283.034V284.028C244.084 284.612 244.186 285.108 244.391 285.517C244.599 285.926 244.889 286.239 245.26 286.455C245.631 286.667 246.065 286.773 246.561 286.773C246.883 286.773 247.177 286.727 247.442 286.636C247.707 286.542 247.936 286.402 248.129 286.216C248.322 286.03 248.47 285.801 248.572 285.528L250.18 285.818C250.052 286.292 249.821 286.706 249.487 287.062C249.158 287.415 248.743 287.689 248.243 287.886C247.747 288.08 247.18 288.176 246.544 288.176ZM255.849 288.176C255.005 288.176 254.277 287.985 253.668 287.602C253.062 287.216 252.596 286.684 252.27 286.006C251.944 285.328 251.781 284.551 251.781 283.676C251.781 282.79 251.948 282.008 252.281 281.33C252.615 280.648 253.084 280.116 253.69 279.733C254.296 279.35 255.01 279.159 255.832 279.159C256.495 279.159 257.086 279.282 257.605 279.528C258.124 279.771 258.543 280.112 258.861 280.551C259.183 280.991 259.374 281.504 259.435 282.091H257.781C257.69 281.682 257.482 281.33 257.156 281.034C256.834 280.739 256.402 280.591 255.861 280.591C255.387 280.591 254.973 280.716 254.616 280.966C254.264 281.212 253.99 281.564 253.793 282.023C253.596 282.477 253.497 283.015 253.497 283.636C253.497 284.273 253.594 284.822 253.787 285.284C253.98 285.746 254.253 286.104 254.605 286.358C254.961 286.612 255.38 286.739 255.861 286.739C256.183 286.739 256.474 286.68 256.736 286.562C257.001 286.441 257.223 286.269 257.401 286.045C257.582 285.822 257.709 285.553 257.781 285.239H259.435C259.374 285.803 259.19 286.307 258.884 286.75C258.577 287.193 258.166 287.542 257.651 287.795C257.139 288.049 256.539 288.176 255.849 288.176ZM265.325 279.273V280.636H260.558V279.273H265.325ZM261.837 277.182H263.536V285.438C263.536 285.767 263.585 286.015 263.683 286.182C263.782 286.345 263.909 286.456 264.064 286.517C264.223 286.574 264.395 286.602 264.581 286.602C264.717 286.602 264.837 286.593 264.939 286.574C265.041 286.555 265.121 286.54 265.178 286.528L265.484 287.932C265.386 287.97 265.246 288.008 265.064 288.045C264.882 288.087 264.655 288.11 264.382 288.114C263.935 288.121 263.518 288.042 263.132 287.875C262.746 287.708 262.433 287.451 262.195 287.102C261.956 286.754 261.837 286.316 261.837 285.79V277.182ZM270.872 288.176C270.012 288.176 269.272 287.992 268.651 287.625C268.033 287.254 267.556 286.733 267.219 286.062C266.885 285.388 266.719 284.598 266.719 283.693C266.719 282.799 266.885 282.011 267.219 281.33C267.556 280.648 268.026 280.116 268.628 279.733C269.234 279.35 269.942 279.159 270.753 279.159C271.245 279.159 271.723 279.241 272.185 279.403C272.647 279.566 273.062 279.822 273.429 280.17C273.796 280.519 274.086 280.972 274.298 281.528C274.51 282.081 274.616 282.754 274.616 283.545V284.148H267.679V282.875H272.952C272.952 282.428 272.861 282.032 272.679 281.688C272.497 281.339 272.241 281.064 271.912 280.864C271.586 280.663 271.204 280.562 270.764 280.562C270.287 280.562 269.87 280.68 269.514 280.915C269.162 281.146 268.889 281.449 268.696 281.824C268.507 282.195 268.412 282.598 268.412 283.034V284.028C268.412 284.612 268.514 285.108 268.719 285.517C268.927 285.926 269.217 286.239 269.588 286.455C269.959 286.667 270.393 286.773 270.889 286.773C271.211 286.773 271.505 286.727 271.77 286.636C272.035 286.542 272.264 286.402 272.457 286.216C272.651 286.03 272.798 285.801 272.901 285.528L274.509 285.818C274.38 286.292 274.149 286.706 273.815 287.062C273.486 287.415 273.071 287.689 272.571 287.886C272.075 288.08 271.509 288.176 270.872 288.176ZM279.768 288.17C279.064 288.17 278.435 287.991 277.882 287.631C277.333 287.267 276.901 286.75 276.587 286.08C276.276 285.405 276.121 284.597 276.121 283.653C276.121 282.71 276.278 281.903 276.592 281.233C276.911 280.562 277.346 280.049 277.899 279.693C278.452 279.337 279.079 279.159 279.78 279.159C280.321 279.159 280.757 279.25 281.087 279.432C281.42 279.61 281.678 279.818 281.859 280.057C282.045 280.295 282.189 280.506 282.291 280.688H282.393V276.364H284.092V288H282.433V286.642H282.291C282.189 286.828 282.041 287.04 281.848 287.278C281.659 287.517 281.397 287.725 281.064 287.903C280.731 288.081 280.299 288.17 279.768 288.17ZM280.143 286.722C280.632 286.722 281.045 286.593 281.382 286.335C281.723 286.074 281.981 285.712 282.155 285.25C282.333 284.788 282.422 284.25 282.422 283.636C282.422 283.03 282.335 282.5 282.161 282.045C281.986 281.591 281.731 281.237 281.393 280.983C281.056 280.729 280.64 280.602 280.143 280.602C279.632 280.602 279.206 280.735 278.865 281C278.524 281.265 278.267 281.627 278.092 282.085C277.922 282.544 277.837 283.061 277.837 283.636C277.837 284.22 277.924 284.744 278.098 285.21C278.272 285.676 278.53 286.045 278.871 286.318C279.215 286.587 279.64 286.722 280.143 286.722Z" fill="#0A0A0A"/>
</svg>
