<svg width="791" height="272" viewBox="0 0 791 272" fill="none" xmlns="http://www.w3.org/2000/svg">
<rect width="791" height="272" fill="white"/>
<path d="M250.136 173V103.182H263.727V173H250.136ZM257 92.4091C254.636 92.4091 252.606 91.6212 250.909 90.0454C249.242 88.4394 248.409 86.5303 248.409 84.3182C248.409 82.0758 249.242 80.1667 250.909 78.5909C252.606 76.9848 254.636 76.1818 257 76.1818C259.364 76.1818 261.379 76.9848 263.045 78.5909C264.742 80.1667 265.591 82.0758 265.591 84.3182C265.591 86.5303 264.742 88.4394 263.045 90.0454C261.379 91.6212 259.364 92.4091 257 92.4091ZM292.875 79.9091L315.148 116.318H315.875L338.148 79.9091H354.42L325.42 126.455L354.602 173H338.239L315.875 137.091H315.148L292.784 173H276.42L306.102 126.455L276.602 79.9091H292.875ZM400.08 142.818H413.898L423.625 155.5L428.216 161.136L443.716 181.364H429.352L418.989 167.864L415.443 162.955L400.08 142.818ZM446.716 126.455C446.716 136.394 444.898 144.939 441.261 152.091C437.625 159.212 432.64 164.697 426.307 168.545C420.004 172.364 412.837 174.273 404.807 174.273C396.746 174.273 389.549 172.364 383.216 168.545C376.913 164.697 371.943 159.197 368.307 152.045C364.67 144.894 362.852 136.364 362.852 126.455C362.852 116.515 364.67 107.985 368.307 100.864C371.943 93.7121 376.913 88.2273 383.216 84.4091C389.549 80.5606 396.746 78.6364 404.807 78.6364C412.837 78.6364 420.004 80.5606 426.307 84.4091C432.64 88.2273 437.625 93.7121 441.261 100.864C444.898 107.985 446.716 116.515 446.716 126.455ZM432.807 126.455C432.807 118.879 431.58 112.5 429.125 107.318C426.701 102.106 423.367 98.1667 419.125 95.5C414.913 92.803 410.14 91.4545 404.807 91.4545C399.443 91.4545 394.655 92.803 390.443 95.5C386.231 98.1667 382.898 102.106 380.443 107.318C378.019 112.5 376.807 118.879 376.807 126.455C376.807 134.03 378.019 140.424 380.443 145.636C382.898 150.818 386.231 154.758 390.443 157.455C394.655 160.121 399.443 161.455 404.807 161.455C410.14 161.455 414.913 160.121 419.125 157.455C423.367 154.758 426.701 150.818 429.125 145.636C431.58 140.424 432.807 134.03 432.807 126.455ZM524.091 79.9091H538.182V141.136C538.182 147.652 536.652 153.424 533.591 158.455C530.53 163.455 526.227 167.394 520.682 170.273C515.136 173.121 508.636 174.545 501.182 174.545C493.758 174.545 487.273 173.121 481.727 170.273C476.182 167.394 471.879 163.455 468.818 158.455C465.758 153.424 464.227 147.652 464.227 141.136V79.9091H478.273V140C478.273 144.212 479.197 147.955 481.045 151.227C482.924 154.5 485.576 157.076 489 158.955C492.424 160.803 496.485 161.727 501.182 161.727C505.909 161.727 509.985 160.803 513.409 158.955C516.864 157.076 519.5 154.5 521.318 151.227C523.167 147.955 524.091 144.212 524.091 140V79.9091Z" fill="#0A0A0A"/>
<path d="M311.091 219V207.364H315.239C316.144 207.364 316.894 207.528 317.489 207.858C318.083 208.187 318.528 208.638 318.824 209.21C319.119 209.778 319.267 210.419 319.267 211.131C319.267 211.847 319.117 212.491 318.818 213.062C318.523 213.631 318.076 214.081 317.477 214.415C316.883 214.744 316.134 214.909 315.233 214.909H312.381V213.42H315.074C315.646 213.42 316.11 213.322 316.466 213.125C316.822 212.924 317.083 212.652 317.25 212.307C317.417 211.962 317.5 211.57 317.5 211.131C317.5 210.691 317.417 210.301 317.25 209.96C317.083 209.619 316.82 209.352 316.46 209.159C316.104 208.966 315.634 208.869 315.051 208.869H312.847V219H311.091ZM324.756 219.176C323.938 219.176 323.223 218.989 322.614 218.614C322.004 218.239 321.53 217.714 321.193 217.04C320.856 216.366 320.688 215.578 320.688 214.676C320.688 213.771 320.856 212.979 321.193 212.301C321.53 211.623 322.004 211.097 322.614 210.722C323.223 210.347 323.938 210.159 324.756 210.159C325.574 210.159 326.288 210.347 326.898 210.722C327.508 211.097 327.981 211.623 328.318 212.301C328.655 212.979 328.824 213.771 328.824 214.676C328.824 215.578 328.655 216.366 328.318 217.04C327.981 217.714 327.508 218.239 326.898 218.614C326.288 218.989 325.574 219.176 324.756 219.176ZM324.761 217.75C325.292 217.75 325.731 217.61 326.08 217.33C326.428 217.049 326.686 216.676 326.852 216.21C327.023 215.744 327.108 215.231 327.108 214.67C327.108 214.114 327.023 213.602 326.852 213.136C326.686 212.667 326.428 212.29 326.08 212.006C325.731 211.722 325.292 211.58 324.761 211.58C324.227 211.58 323.784 211.722 323.432 212.006C323.083 212.29 322.824 212.667 322.653 213.136C322.487 213.602 322.403 214.114 322.403 214.67C322.403 215.231 322.487 215.744 322.653 216.21C322.824 216.676 323.083 217.049 323.432 217.33C323.784 217.61 324.227 217.75 324.761 217.75ZM330.72 219V210.273H332.351V211.693H332.459C332.641 211.212 332.938 210.837 333.351 210.568C333.764 210.295 334.258 210.159 334.834 210.159C335.417 210.159 335.906 210.295 336.3 210.568C336.697 210.841 336.991 211.216 337.18 211.693H337.271C337.48 211.227 337.811 210.856 338.266 210.58C338.72 210.299 339.262 210.159 339.891 210.159C340.682 210.159 341.328 210.407 341.828 210.903C342.332 211.4 342.584 212.148 342.584 213.148V219H340.885V213.307C340.885 212.716 340.724 212.288 340.402 212.023C340.08 211.758 339.696 211.625 339.249 211.625C338.696 211.625 338.266 211.795 337.959 212.136C337.652 212.473 337.499 212.907 337.499 213.438V219H335.805V213.199C335.805 212.725 335.658 212.345 335.362 212.057C335.067 211.769 334.682 211.625 334.209 211.625C333.887 211.625 333.589 211.71 333.317 211.881C333.048 212.047 332.83 212.28 332.663 212.58C332.5 212.879 332.419 213.225 332.419 213.619V219H330.72ZM348.537 219.176C347.719 219.176 347.005 218.989 346.395 218.614C345.785 218.239 345.312 217.714 344.974 217.04C344.637 216.366 344.469 215.578 344.469 214.676C344.469 213.771 344.637 212.979 344.974 212.301C345.312 211.623 345.785 211.097 346.395 210.722C347.005 210.347 347.719 210.159 348.537 210.159C349.355 210.159 350.069 210.347 350.679 210.722C351.289 211.097 351.762 211.623 352.099 212.301C352.437 212.979 352.605 213.771 352.605 214.676C352.605 215.578 352.437 216.366 352.099 217.04C351.762 217.714 351.289 218.239 350.679 218.614C350.069 218.989 349.355 219.176 348.537 219.176ZM348.543 217.75C349.073 217.75 349.512 217.61 349.861 217.33C350.209 217.049 350.467 216.676 350.634 216.21C350.804 215.744 350.889 215.231 350.889 214.67C350.889 214.114 350.804 213.602 350.634 213.136C350.467 212.667 350.209 212.29 349.861 212.006C349.512 211.722 349.073 211.58 348.543 211.58C348.009 211.58 347.565 211.722 347.213 212.006C346.865 212.29 346.605 212.667 346.435 213.136C346.268 213.602 346.185 214.114 346.185 214.67C346.185 215.231 346.268 215.744 346.435 216.21C346.605 216.676 346.865 217.049 347.213 217.33C347.565 217.61 348.009 217.75 348.543 217.75ZM357.768 219.17C357.064 219.17 356.435 218.991 355.882 218.631C355.333 218.267 354.901 217.75 354.587 217.08C354.276 216.405 354.121 215.597 354.121 214.653C354.121 213.71 354.278 212.903 354.592 212.233C354.911 211.562 355.346 211.049 355.899 210.693C356.452 210.337 357.079 210.159 357.78 210.159C358.321 210.159 358.757 210.25 359.087 210.432C359.42 210.61 359.678 210.818 359.859 211.057C360.045 211.295 360.189 211.506 360.291 211.688H360.393V207.364H362.092V219H360.433V217.642H360.291C360.189 217.828 360.041 218.04 359.848 218.278C359.659 218.517 359.397 218.725 359.064 218.903C358.731 219.081 358.299 219.17 357.768 219.17ZM358.143 217.722C358.632 217.722 359.045 217.593 359.382 217.335C359.723 217.074 359.981 216.712 360.155 216.25C360.333 215.788 360.422 215.25 360.422 214.636C360.422 214.03 360.335 213.5 360.161 213.045C359.986 212.591 359.731 212.237 359.393 211.983C359.056 211.729 358.64 211.602 358.143 211.602C357.632 211.602 357.206 211.735 356.865 212C356.524 212.265 356.267 212.627 356.092 213.085C355.922 213.544 355.837 214.061 355.837 214.636C355.837 215.22 355.924 215.744 356.098 216.21C356.272 216.676 356.53 217.045 356.871 217.318C357.215 217.587 357.64 217.722 358.143 217.722ZM368.193 219.176C367.375 219.176 366.661 218.989 366.051 218.614C365.441 218.239 364.968 217.714 364.631 217.04C364.294 216.366 364.125 215.578 364.125 214.676C364.125 213.771 364.294 212.979 364.631 212.301C364.968 211.623 365.441 211.097 366.051 210.722C366.661 210.347 367.375 210.159 368.193 210.159C369.011 210.159 369.725 210.347 370.335 210.722C370.945 211.097 371.419 211.623 371.756 212.301C372.093 212.979 372.261 213.771 372.261 214.676C372.261 215.578 372.093 216.366 371.756 217.04C371.419 217.714 370.945 218.239 370.335 218.614C369.725 218.989 369.011 219.176 368.193 219.176ZM368.199 217.75C368.729 217.75 369.169 217.61 369.517 217.33C369.866 217.049 370.123 216.676 370.29 216.21C370.46 215.744 370.545 215.231 370.545 214.67C370.545 214.114 370.46 213.602 370.29 213.136C370.123 212.667 369.866 212.29 369.517 212.006C369.169 211.722 368.729 211.58 368.199 211.58C367.665 211.58 367.222 211.722 366.869 212.006C366.521 212.29 366.261 212.667 366.091 213.136C365.924 213.602 365.841 214.114 365.841 214.67C365.841 215.231 365.924 215.744 366.091 216.21C366.261 216.676 366.521 217.049 366.869 217.33C367.222 217.61 367.665 217.75 368.199 217.75ZM374.158 219V210.273H375.8V211.659H375.891C376.05 211.189 376.33 210.82 376.732 210.551C377.137 210.278 377.595 210.142 378.107 210.142C378.213 210.142 378.338 210.146 378.482 210.153C378.629 210.161 378.745 210.17 378.828 210.182V211.807C378.76 211.788 378.639 211.767 378.464 211.744C378.29 211.718 378.116 211.705 377.942 211.705C377.54 211.705 377.182 211.79 376.868 211.96C376.557 212.127 376.311 212.36 376.129 212.659C375.947 212.955 375.857 213.292 375.857 213.67V219H374.158ZM383.662 219.176C382.844 219.176 382.13 218.989 381.52 218.614C380.91 218.239 380.437 217.714 380.099 217.04C379.762 216.366 379.594 215.578 379.594 214.676C379.594 213.771 379.762 212.979 380.099 212.301C380.437 211.623 380.91 211.097 381.52 210.722C382.13 210.347 382.844 210.159 383.662 210.159C384.48 210.159 385.194 210.347 385.804 210.722C386.414 211.097 386.887 211.623 387.224 212.301C387.562 212.979 387.73 213.771 387.73 214.676C387.73 215.578 387.562 216.366 387.224 217.04C386.887 217.714 386.414 218.239 385.804 218.614C385.194 218.989 384.48 219.176 383.662 219.176ZM383.668 217.75C384.198 217.75 384.637 217.61 384.986 217.33C385.334 217.049 385.592 216.676 385.759 216.21C385.929 215.744 386.014 215.231 386.014 214.67C386.014 214.114 385.929 213.602 385.759 213.136C385.592 212.667 385.334 212.29 384.986 212.006C384.637 211.722 384.198 211.58 383.668 211.58C383.134 211.58 382.69 211.722 382.338 212.006C381.99 212.29 381.73 212.667 381.56 213.136C381.393 213.602 381.31 214.114 381.31 214.67C381.31 215.231 381.393 215.744 381.56 216.21C381.73 216.676 381.99 217.049 382.338 217.33C382.69 217.61 383.134 217.75 383.668 217.75ZM396.166 212.403L394.626 212.676C394.562 212.479 394.46 212.292 394.32 212.114C394.183 211.936 393.998 211.79 393.763 211.676C393.528 211.562 393.234 211.506 392.882 211.506C392.401 211.506 392 211.614 391.678 211.83C391.356 212.042 391.195 212.316 391.195 212.653C391.195 212.945 391.303 213.18 391.518 213.358C391.734 213.536 392.083 213.682 392.564 213.795L393.95 214.114C394.753 214.299 395.352 214.585 395.746 214.972C396.14 215.358 396.337 215.86 396.337 216.477C396.337 217 396.185 217.466 395.882 217.875C395.583 218.28 395.164 218.598 394.626 218.83C394.092 219.061 393.473 219.176 392.768 219.176C391.791 219.176 390.994 218.968 390.376 218.551C389.759 218.131 389.38 217.534 389.24 216.761L390.882 216.511C390.984 216.939 391.195 217.263 391.513 217.483C391.831 217.699 392.246 217.807 392.757 217.807C393.314 217.807 393.759 217.691 394.092 217.46C394.426 217.225 394.592 216.939 394.592 216.602C394.592 216.33 394.49 216.1 394.286 215.915C394.085 215.729 393.776 215.589 393.359 215.494L391.882 215.17C391.068 214.985 390.465 214.689 390.075 214.284C389.689 213.879 389.496 213.366 389.496 212.744C389.496 212.229 389.64 211.778 389.928 211.392C390.215 211.006 390.613 210.705 391.121 210.489C391.628 210.269 392.21 210.159 392.865 210.159C393.808 210.159 394.551 210.364 395.092 210.773C395.634 211.178 395.992 211.722 396.166 212.403ZM400.415 217.409L400.33 218.028C400.273 218.483 400.176 218.956 400.04 219.449C399.907 219.945 399.769 220.405 399.625 220.83C399.485 221.254 399.369 221.591 399.278 221.841H398.074C398.123 221.606 398.191 221.288 398.278 220.886C398.366 220.489 398.451 220.044 398.534 219.551C398.617 219.059 398.68 218.557 398.722 218.045L398.778 217.409H400.415ZM406.997 219V207.364H411.145C412.05 207.364 412.8 207.528 413.395 207.858C413.99 208.187 414.435 208.638 414.73 209.21C415.026 209.778 415.173 210.419 415.173 211.131C415.173 211.847 415.024 212.491 414.724 213.062C414.429 213.631 413.982 214.081 413.384 214.415C412.789 214.744 412.041 214.909 411.139 214.909H408.287V213.42H410.98C411.552 213.42 412.016 213.322 412.372 213.125C412.728 212.924 412.99 212.652 413.156 212.307C413.323 211.962 413.406 211.57 413.406 211.131C413.406 210.691 413.323 210.301 413.156 209.96C412.99 209.619 412.726 209.352 412.366 209.159C412.01 208.966 411.541 208.869 410.957 208.869H408.753V219H406.997ZM420.747 219.176C419.887 219.176 419.147 218.992 418.526 218.625C417.908 218.254 417.431 217.733 417.094 217.062C416.76 216.388 416.594 215.598 416.594 214.693C416.594 213.799 416.76 213.011 417.094 212.33C417.431 211.648 417.901 211.116 418.503 210.733C419.109 210.35 419.817 210.159 420.628 210.159C421.12 210.159 421.598 210.241 422.06 210.403C422.522 210.566 422.937 210.822 423.304 211.17C423.671 211.519 423.961 211.972 424.173 212.528C424.385 213.081 424.491 213.754 424.491 214.545V215.148H417.554V213.875H422.827C422.827 213.428 422.736 213.032 422.554 212.688C422.372 212.339 422.116 212.064 421.787 211.864C421.461 211.663 421.079 211.562 420.639 211.562C420.162 211.562 419.745 211.68 419.389 211.915C419.037 212.146 418.764 212.449 418.571 212.824C418.382 213.195 418.287 213.598 418.287 214.034V215.028C418.287 215.612 418.389 216.108 418.594 216.517C418.802 216.926 419.092 217.239 419.463 217.455C419.834 217.667 420.268 217.773 420.764 217.773C421.086 217.773 421.38 217.727 421.645 217.636C421.91 217.542 422.139 217.402 422.332 217.216C422.526 217.03 422.673 216.801 422.776 216.528L424.384 216.818C424.255 217.292 424.024 217.706 423.69 218.062C423.361 218.415 422.946 218.689 422.446 218.886C421.95 219.08 421.384 219.176 420.747 219.176ZM426.376 219V210.273H428.018V211.659H428.109C428.268 211.189 428.549 210.82 428.95 210.551C429.356 210.278 429.814 210.142 430.325 210.142C430.431 210.142 430.556 210.146 430.7 210.153C430.848 210.161 430.964 210.17 431.047 210.182V211.807C430.979 211.788 430.857 211.767 430.683 211.744C430.509 211.718 430.335 211.705 430.161 211.705C429.759 211.705 429.401 211.79 429.087 211.96C428.776 212.127 428.53 212.36 428.348 212.659C428.166 212.955 428.075 213.292 428.075 213.67V219H426.376ZM437.186 210.273V211.636H432.254V210.273H437.186ZM433.607 219V209.261C433.607 208.716 433.726 208.263 433.964 207.903C434.203 207.54 434.519 207.269 434.913 207.091C435.307 206.909 435.735 206.818 436.197 206.818C436.538 206.818 436.83 206.847 437.072 206.903C437.315 206.956 437.495 207.006 437.612 207.051L437.214 208.426C437.135 208.403 437.033 208.377 436.908 208.347C436.783 208.312 436.631 208.295 436.453 208.295C436.04 208.295 435.745 208.398 435.567 208.602C435.393 208.807 435.305 209.102 435.305 209.489V219H433.607ZM442.357 219.176C441.497 219.176 440.756 218.992 440.135 218.625C439.518 218.254 439.04 217.733 438.703 217.062C438.37 216.388 438.203 215.598 438.203 214.693C438.203 213.799 438.37 213.011 438.703 212.33C439.04 211.648 439.51 211.116 440.112 210.733C440.718 210.35 441.427 210.159 442.237 210.159C442.73 210.159 443.207 210.241 443.669 210.403C444.131 210.566 444.546 210.822 444.913 211.17C445.281 211.519 445.571 211.972 445.783 212.528C445.995 213.081 446.101 213.754 446.101 214.545V215.148H439.163V213.875H444.436C444.436 213.428 444.345 213.032 444.163 212.688C443.982 212.339 443.726 212.064 443.396 211.864C443.071 211.663 442.688 211.562 442.249 211.562C441.771 211.562 441.355 211.68 440.999 211.915C440.646 212.146 440.374 212.449 440.18 212.824C439.991 213.195 439.896 213.598 439.896 214.034V215.028C439.896 215.612 439.999 216.108 440.203 216.517C440.411 216.926 440.701 217.239 441.072 217.455C441.444 217.667 441.877 217.773 442.374 217.773C442.696 217.773 442.989 217.727 443.254 217.636C443.519 217.542 443.749 217.402 443.942 217.216C444.135 217.03 444.283 216.801 444.385 216.528L445.993 216.818C445.864 217.292 445.633 217.706 445.3 218.062C444.97 218.415 444.555 218.689 444.055 218.886C443.559 219.08 442.993 219.176 442.357 219.176ZM451.662 219.176C450.817 219.176 450.09 218.985 449.48 218.602C448.874 218.216 448.408 217.684 448.082 217.006C447.757 216.328 447.594 215.551 447.594 214.676C447.594 213.79 447.76 213.008 448.094 212.33C448.427 211.648 448.897 211.116 449.503 210.733C450.109 210.35 450.823 210.159 451.645 210.159C452.308 210.159 452.899 210.282 453.418 210.528C453.937 210.771 454.355 211.112 454.673 211.551C454.995 211.991 455.187 212.504 455.247 213.091H453.594C453.503 212.682 453.295 212.33 452.969 212.034C452.647 211.739 452.215 211.591 451.673 211.591C451.2 211.591 450.785 211.716 450.429 211.966C450.077 212.212 449.802 212.564 449.605 213.023C449.408 213.477 449.31 214.015 449.31 214.636C449.31 215.273 449.406 215.822 449.599 216.284C449.793 216.746 450.065 217.104 450.418 217.358C450.774 217.612 451.192 217.739 451.673 217.739C451.995 217.739 452.287 217.68 452.548 217.562C452.813 217.441 453.035 217.269 453.213 217.045C453.395 216.822 453.522 216.553 453.594 216.239H455.247C455.187 216.803 455.003 217.307 454.696 217.75C454.389 218.193 453.978 218.542 453.463 218.795C452.952 219.049 452.351 219.176 451.662 219.176ZM461.138 210.273V211.636H456.371V210.273H461.138ZM457.649 208.182H459.348V216.438C459.348 216.767 459.397 217.015 459.496 217.182C459.594 217.345 459.721 217.456 459.876 217.517C460.036 217.574 460.208 217.602 460.393 217.602C460.53 217.602 460.649 217.593 460.751 217.574C460.854 217.555 460.933 217.54 460.99 217.528L461.297 218.932C461.198 218.97 461.058 219.008 460.876 219.045C460.695 219.087 460.467 219.11 460.195 219.114C459.748 219.121 459.331 219.042 458.945 218.875C458.558 218.708 458.246 218.451 458.007 218.102C457.768 217.754 457.649 217.316 457.649 216.79V208.182ZM466.685 219.176C465.825 219.176 465.084 218.992 464.463 218.625C463.846 218.254 463.368 217.733 463.031 217.062C462.698 216.388 462.531 215.598 462.531 214.693C462.531 213.799 462.698 213.011 463.031 212.33C463.368 211.648 463.838 211.116 464.44 210.733C465.046 210.35 465.755 210.159 466.565 210.159C467.058 210.159 467.535 210.241 467.997 210.403C468.459 210.566 468.874 210.822 469.241 211.17C469.609 211.519 469.899 211.972 470.111 212.528C470.323 213.081 470.429 213.754 470.429 214.545V215.148H463.491V213.875H468.764C468.764 213.428 468.673 213.032 468.491 212.688C468.31 212.339 468.054 212.064 467.724 211.864C467.399 211.663 467.016 211.562 466.577 211.562C466.099 211.562 465.683 211.68 465.327 211.915C464.974 212.146 464.702 212.449 464.509 212.824C464.319 213.195 464.224 213.598 464.224 214.034V215.028C464.224 215.612 464.327 216.108 464.531 216.517C464.74 216.926 465.029 217.239 465.401 217.455C465.772 217.667 466.205 217.773 466.702 217.773C467.024 217.773 467.317 217.727 467.582 217.636C467.848 217.542 468.077 217.402 468.27 217.216C468.463 217.03 468.611 216.801 468.713 216.528L470.321 216.818C470.192 217.292 469.961 217.706 469.628 218.062C469.298 218.415 468.884 218.689 468.384 218.886C467.887 219.08 467.321 219.176 466.685 219.176ZM475.581 219.17C474.876 219.17 474.248 218.991 473.695 218.631C473.145 218.267 472.714 217.75 472.399 217.08C472.089 216.405 471.933 215.597 471.933 214.653C471.933 213.71 472.09 212.903 472.405 212.233C472.723 211.562 473.159 211.049 473.712 210.693C474.265 210.337 474.892 210.159 475.592 210.159C476.134 210.159 476.57 210.25 476.899 210.432C477.232 210.61 477.49 210.818 477.672 211.057C477.857 211.295 478.001 211.506 478.104 211.688H478.206V207.364H479.905V219H478.246V217.642H478.104C478.001 217.828 477.854 218.04 477.661 218.278C477.471 218.517 477.21 218.725 476.876 218.903C476.543 219.081 476.111 219.17 475.581 219.17ZM475.956 217.722C476.445 217.722 476.857 217.593 477.195 217.335C477.536 217.074 477.793 216.712 477.967 216.25C478.145 215.788 478.234 215.25 478.234 214.636C478.234 214.03 478.147 213.5 477.973 213.045C477.799 212.591 477.543 212.237 477.206 211.983C476.869 211.729 476.452 211.602 475.956 211.602C475.445 211.602 475.018 211.735 474.678 212C474.337 212.265 474.079 212.627 473.905 213.085C473.734 213.544 473.649 214.061 473.649 214.636C473.649 215.22 473.736 215.744 473.911 216.21C474.085 216.676 474.342 217.045 474.683 217.318C475.028 217.587 475.452 217.722 475.956 217.722Z" fill="#0A0A0A"/>
</svg>
